{
  "accessors": [
    {
      "bufferView": 2,
      "componentType": 5126,
      "count": 1349,
      "max": [
        1.5818281173706055,
        -0.97487050294876099,
        3.4520225524902344
      ],
      "min": [
        0.077238172292709351,
        -1.920962929725647,
        -7.7012739181518555
      ],
      "type": "VEC3"
    },
    {
      "bufferView": 2,
      "byteOffset": 16188,
      "componentType": 5126,
      "count": 1349,
      "max": [
        1,
        1,
        0.99997556209564209
      ],
      "min": [
        -1,
        -1,
        -0.99998933076858521
      ],
      "type": "VEC3"
    },
    {
      "bufferView": 1,
      "componentType": 5126,
      "count": 1349,
      "max": [
        0.72292232513427734,
        0.28618180751800537
      ],
      "min": [
        0.3419950008392334,
        0.093752920627593994
      ],
      "type": "VEC2"
    },
    {
      "bufferView": 0,
      "componentType": 5125,
      "count": 2661,
      "max": [
        1348
      ],
      "min": [
        0
      ],
      "type": "SCALAR"
    },
    {
      "bufferView": 2,
      "byteOffset": 32376,
      "componentType": 5126,
      "count": 1683,
      "max": [
        1.7304116487503052,
        2.9683799743652344,
        4.0372157096862793
      ],
      "min": [
        -1.5759352445602417,
        -1.3768922090530396,
        1.1239013671875
      ],
      "type": "VEC3"
    },
    {
      "bufferView": 2,
      "byteOffset": 52572,
      "componentType": 5126,
      "count": 1683,
      "max": [
        0.99992799758911133,
        0.99999862909317017,
        0.99810665845870972
      ],
      "min": [
        -0.99992799758911133,
        -0.99999940395355225,
        -1
      ],
      "type": "VEC3"
    },
    {
      "bufferView": 1,
      "byteOffset": 10792,
      "componentType": 5126,
      "count": 1683,
      "max": [
        0.92080140113830566,
        0.35608506202697754
      ],
      "min": [
        0.027414059266448021,
        0.0049979090690612793
      ],
      "type": "VEC2"
    },
    {
      "bufferView": 0,
      "byteOffset": 10644,
      "componentType": 5125,
      "count": 2640,
      "max": [
        1682
      ],
      "min": [
        0
      ],
      "type": "SCALAR"
    },
    {
      "bufferView": 2,
      "byteOffset": 72768,
      "componentType": 5126,
      "count": 287,
      "max": [
        1.6733500957489014,
        -1.4334090948104858,
        4.1039724349975586
      ],
      "min": [
        -1.5188736915588379,
        -2.1274363994598389,
        2.8479690551757812
      ],
      "type": "VEC3"
    },
    {
      "bufferView": 2,
      "byteOffset": 76212,
      "componentType": 5126,
      "count": 287,
      "max": [
        0.99868315458297729,
        0.99999731779098511,
        0.99866187572479248
      ],
      "min": [
        -0.99868315458297729,
        -1,
        -0.99808782339096069
      ],
      "type": "VEC3"
    },
    {
      "bufferView": 1,
      "byteOffset": 24256,
      "componentType": 5126,
      "count": 287,
      "max": [
        0.76365005970001221,
        0.20454907417297363
      ],
      "min": [
        0.088152945041656494,
        0.0086340904235839844
      ],
      "type": "VEC2"
    },
    {
      "bufferView": 0,
      "byteOffset": 21204,
      "componentType": 5125,
      "count": 456,
      "max": [
        286
      ],
      "min": [
        0
      ],
      "type": "SCALAR"
    },
    {
      "bufferView": 2,
      "byteOffset": 79656,
      "componentType": 5126,
      "count": 210,
      "max": [
        1.6250519752502441,
        -1.1949350833892822,
        2.8443808555603027
      ],
      "min": [
        0.9125104546546936,
        -2.9778509140014648,
        1.0614652633666992
      ],
      "type": "VEC3"
    },
    {
      "bufferView": 2,
      "byteOffset": 82176,
      "componentType": 5126,
      "count": 210,
      "max": [
        1,
        1,
        1
      ],
      "min": [
        -0.630260169506073,
        -1,
        -1
      ],
      "type": "VEC3"
    },
    {
      "bufferView": 1,
      "byteOffset": 26552,
      "componentType": 5126,
      "count": 210,
      "max": [
        0.97458124160766602,
        0.10143625736236572
      ],
      "min": [
        0.4598192572593689,
        0.02237999439239502
      ],
      "type": "VEC2"
    },
    {
      "bufferView": 0,
      "byteOffset": 23028,
      "componentType": 5125,
      "count": 756,
      "max": [
        209
      ],
      "min": [
        0
      ],
      "type": "SCALAR"
    },
    {
      "bufferView": 2,
      "byteOffset": 84696,
      "componentType": 5126,
      "count": 106,
      "max": [
        2.0018093585968018,
        0.6175004243850708,
        3.9984040260314941
      ],
      "min": [
        -1.8473329544067383,
        -0.12362229824066162,
        3.7959189414978027
      ],
      "type": "VEC3"
    },
    {
      "bufferView": 2,
      "byteOffset": 85968,
      "componentType": 5126,
      "count": 106,
      "max": [
        0.96362948417663574,
        0.78988999128341675,
        0.99735677242279053
      ],
      "min": [
        -0.96362948417663574,
        -0.80045026540756226,
        -0.99737805128097534
      ],
      "type": "VEC3"
    },
    {
      "bufferView": 1,
      "byteOffset": 28232,
      "componentType": 5126,
      "count": 106,
      "max": [
        0.97835934162139893,
        0.10753911733627319
      ],
      "min": [
        0.28707104921340942,
        0.033582925796508789
      ],
      "type": "VEC2"
    },
    {
      "bufferView": 0,
      "byteOffset": 26052,
      "componentType": 5125,
      "count": 456,
      "max": [
        105
      ],
      "min": [
        0
      ],
      "type": "SCALAR"
    },
    {
      "bufferView": 2,
      "byteOffset": 87240,
      "componentType": 5126,
      "count": 1062,
      "max": [
        1.5703856945037842,
        3.2052977085113525,
        0.92388343811035156
      ],
      "min": [
        -1.418225884437561,
        -1.9207656383514404,
        -7.894310474395752
      ],
      "type": "VEC3"
    },
    {
      "bufferView": 2,
      "byteOffset": 99984,
      "componentType": 5126,
      "count": 1062,
      "max": [
        1,
        1,
        0.99988746643066406
      ],
      "min": [
        -1,
        -1,
        -0.99995279312133789
      ],
      "type": "VEC3"
    },
    {
      "bufferView": 1,
      "byteOffset": 29080,
      "componentType": 5126,
      "count": 1062,
      "max": [
        0.96548110246658325,
        0.60359817743301392
      ],
      "min": [
        0.10611910372972488,
        0.016445934772491455
      ],
      "type": "VEC2"
    },
    {
      "bufferView": 0,
      "byteOffset": 27876,
      "componentType": 5125,
      "count": 2214,
      "max": [
        1061
      ],
      "min": [
        0
      ],
      "type": "SCALAR"
    },
    {
      "bufferView": 2,
      "byteOffset": 112728,
      "componentType": 5126,
      "count": 48,
      "max": [
        1.4018663167953491,
        3.122840404510498,
        -7.6637358665466309
      ],
      "min": [
        -1.2473899126052856,
        -0.80317217111587524,
        -7.7811245918273926
      ],
      "type": "VEC3"
    },
    {
      "bufferView": 2,
      "byteOffset": 113304,
      "componentType": 5126,
      "count": 48,
      "max": [
        1,
        1,
        1
      ],
      "min": [
        -1,
        -1,
        -1
      ],
      "type": "VEC3"
    },
    {
      "bufferView": 1,
      "byteOffset": 37576,
      "componentType": 5126,
      "count": 48,
      "max": [
        0.10472840070724487,
        0.02337801456451416
      ],
      "min": [
        0.10247711837291718,
        0.021435260772705078
      ],
      "type": "VEC2"
    },
    {
      "bufferView": 0,
      "byteOffset": 36732,
      "componentType": 5125,
      "count": 72,
      "max": [
        47
      ],
      "min": [
        0
      ],
      "type": "SCALAR"
    },
    {
      "bufferView": 2,
      "byteOffset": 113880,
      "componentType": 5126,
      "count": 1344,
      "max": [
        1.4165300130844116,
        2.3855433464050293,
        -7.4194440841674805
      ],
      "min": [
        -1.2620536088943481,
        -1.5839583873748779,
        -8.2137680053710938
      ],
      "type": "VEC3"
    },
    {
      "bufferView": 2,
      "byteOffset": 130008,
      "componentType": 5126,
      "count": 1344,
      "max": [
        1,
        0.99958229064941406,
        0.99997174739837646
      ],
      "min": [
        -1,
        -0.99995124340057373,
        -0.99996340274810791
      ],
      "type": "VEC3"
    },
    {
      "bufferView": 1,
      "byteOffset": 37960,
      "componentType": 5126,
      "count": 1344,
      "max": [
        0.84712553024291992,
        0.96378374099731445
      ],
      "min": [
        0.47608006000518799,
        0.01051175594329834
      ],
      "type": "VEC2"
    },
    {
      "bufferView": 0,
      "byteOffset": 37020,
      "componentType": 5125,
      "count": 2112,
      "max": [
        1343
      ],
      "min": [
        0
      ],
      "type": "SCALAR"
    },
    {
      "bufferView": 2,
      "byteOffset": 146136,
      "componentType": 5126,
      "count": 250,
      "max": [
        -0.83709257841110229,
        -1.1949349641799927,
        -4.0953335762023926
      ],
      "min": [
        -1.5158017873764038,
        -2.9778509140014648,
        -5.8782491683959961
      ],
      "type": "VEC3"
    },
    {
      "bufferView": 2,
      "byteOffset": 149136,
      "componentType": 5126,
      "count": 250,
      "max": [
        0.630260169506073,
        1,
        1
      ],
      "min": [
        -1,
        -1,
        -1
      ],
      "type": "VEC3"
    },
    {
      "bufferView": 1,
      "byteOffset": 48712,
      "componentType": 5126,
      "count": 250,
      "max": [
        0.97458124160766602,
        0.10143625736236572
      ],
      "min": [
        0.39472281932830811,
        0.020783364772796631
      ],
      "type": "VEC2"
    },
    {
      "bufferView": 0,
      "byteOffset": 45468,
      "componentType": 5125,
      "count": 852,
      "max": [
        249
      ],
      "min": [
        0
      ],
      "type": "SCALAR"
    },
    {
      "bufferView": 2,
      "byteOffset": 152136,
      "componentType": 5126,
      "count": 250,
      "max": [
        1.6702780723571777,
        -1.1949350833892822,
        -4.0953335762023926
      ],
      "min": [
        0.991568922996521,
        -2.9778509140014648,
        -5.8782491683959961
      ],
      "type": "VEC3"
    },
    {
      "bufferView": 2,
      "byteOffset": 155136,
      "componentType": 5126,
      "count": 250,
      "max": [
        1,
        1,
        1
      ],
      "min": [
        -0.630260169506073,
        -1,
        -1
      ],
      "type": "VEC3"
    },
    {
      "bufferView": 1,
      "byteOffset": 50712,
      "componentType": 5126,
      "count": 250,
      "max": [
        0.97458124160766602,
        0.10143625736236572
      ],
      "min": [
        0.39472281932830811,
        0.020783364772796631
      ],
      "type": "VEC2"
    },
    {
      "bufferView": 0,
      "byteOffset": 48876,
      "componentType": 5125,
      "count": 852,
      "max": [
        249
      ],
      "min": [
        0
      ],
      "type": "SCALAR"
    },
    {
      "bufferView": 2,
      "byteOffset": 158136,
      "componentType": 5126,
      "count": 210,
      "max": [
        -0.7580341100692749,
        -1.1949349641799927,
        2.8443808555603027
      ],
      "min": [
        -1.4705756902694702,
        -2.9778509140014648,
        1.0614655017852783
      ],
      "type": "VEC3"
    },
    {
      "bufferView": 2,
      "byteOffset": 160656,
      "componentType": 5126,
      "count": 210,
      "max": [
        0.630260169506073,
        1,
        1
      ],
      "min": [
        -1,
        -1,
        -1
      ],
      "type": "VEC3"
    },
    {
      "bufferView": 1,
      "byteOffset": 52712,
      "componentType": 5126,
      "count": 210,
      "max": [
        0.97458124160766602,
        0.10143625736236572
      ],
      "min": [
        0.4598192572593689,
        0.02237999439239502
      ],
      "type": "VEC2"
    },
    {
      "bufferView": 0,
      "byteOffset": 52284,
      "componentType": 5125,
      "count": 756,
      "max": [
        209
      ],
      "min": [
        0
      ],
      "type": "SCALAR"
    }
  ],
  "asset": {
    "extras": {
      "author": "businessyuen (https://sketchfab.com/businessyuen)",
      "license": "CC-BY-4.0 (http://creativecommons.org/licenses/by/4.0/)",
      "source": "https://sketchfab.com/3d-models/lorry-d338ba63c6434c5faa900ad3ad9228d5",
      "title": "Lorry"
    },
    "generator": "Sketchfab-9.75.0",
    "version": "2.0"
  },
  "bufferViews": [
    {
      "buffer": 0,
      "byteLength": 55308,
      "byteOffset": 0,
      "name": "floatBufferViews",
      "target": 34963
    },
    {
      "buffer": 0,
      "byteLength": 54392,
      "byteOffset": 55308,
      "byteStride": 8,
      "name": "floatBufferViews",
      "target": 34962
    },
    {
      "buffer": 0,
      "byteLength": 163176,
      "byteOffset": 109700,
      "byteStride": 12,
      "name": "floatBufferViews",
      "target": 34962
    }
  ],
  "buffers": [
    {
      "byteLength": 272876,
      "uri": "scene.bin"
    }
  ],
  "images": [
    {
      "uri": "textures/Material_baseColor.png"
    }
  ],
  "materials": [
    {
      "doubleSided": true,
      "emissiveFactor": [
        0,
        0,
        0
      ],
      "name": "Material",
      "pbrMetallicRoughness": {
        "baseColorFactor": [
          1,
          1,
          1,
          1
        ],
        "baseColorTexture": {
          "index": 0,
          "texCoord": 0
        },
        "metallicFactor": 0,
        "roughnessFactor": 0.40000000000000002
      }
    }
  ],
  "meshes": [
    {
      "primitives": [
        {
          "attributes": {
            "NORMAL": 1,
            "POSITION": 0,
            "TEXCOORD_0": 2
          },
          "indices": 3,
          "material": 0,
          "mode": 4
        }
      ]
    },
    {
      "primitives": [
        {
          "attributes": {
            "NORMAL": 5,
            "POSITION": 4,
            "TEXCOORD_0": 6
          },
          "indices": 7,
          "material": 0,
          "mode": 4
        }
      ]
    },
    {
      "primitives": [
        {
          "attributes": {
            "NORMAL": 9,
            "POSITION": 8,
            "TEXCOORD_0": 10
          },
          "indices": 11,
          "material": 0,
          "mode": 4
        }
      ]
    },
    {
      "primitives": [
        {
          "attributes": {
            "NORMAL": 13,
            "POSITION": 12,
            "TEXCOORD_0": 14
          },
          "indices": 15,
          "material": 0,
          "mode": 4
        }
      ]
    },
    {
      "primitives": [
        {
          "attributes": {
            "NORMAL": 17,
            "POSITION": 16,
            "TEXCOORD_0": 18
          },
          "indices": 19,
          "material": 0,
          "mode": 4
        }
      ]
    },
    {
      "primitives": [
        {
          "attributes": {
            "NORMAL": 21,
            "POSITION": 20,
            "TEXCOORD_0": 22
          },
          "indices": 23,
          "material": 0,
          "mode": 4
        }
      ]
    },
    {
      "primitives": [
        {
          "attributes": {
            "NORMAL": 25,
            "POSITION": 24,
            "TEXCOORD_0": 26
          },
          "indices": 27,
          "material": 0,
          "mode": 4
        }
      ]
    },
    {
      "primitives": [
        {
          "attributes": {
            "NORMAL": 29,
            "POSITION": 28,
            "TEXCOORD_0": 30
          },
          "indices": 31,
          "material": 0,
          "mode": 4
        }
      ]
    },
    {
      "primitives": [
        {
          "attributes": {
            "NORMAL": 33,
            "POSITION": 32,
            "TEXCOORD_0": 34
          },
          "indices": 35,
          "material": 0,
          "mode": 4
        }
      ]
    },
    {
      "primitives": [
        {
          "attributes": {
            "NORMAL": 37,
            "POSITION": 36,
            "TEXCOORD_0": 38
          },
          "indices": 39,
          "material": 0,
          "mode": 4
        }
      ]
    },
    {
      "primitives": [
        {
          "attributes": {
            "NORMAL": 41,
            "POSITION": 40,
            "TEXCOORD_0": 42
          },
          "indices": 43,
          "material": 0,
          "mode": 4
        }
      ]
    }
  ],
  "nodes": [
    {
      "children": [
        1
      ],
      "name": "RootNode (gltf orientation matrix)",
      "rotation": [
        -0.70710678118654746,
        -0,
        -0,
        0.70710678118654757
      ]
    },
    {
      "children": [
        2
      ],
      "name": "RootNode (model correction matrix)"
    },
    {
      "children": [
        3
      ],
      "name": "root"
    },
    {
      "children": [
        4,
        6,
        8,
        10,
        12,
        14,
        16,
        18,
        20,
        22,
        24
      ],
      "matrix": [
        1,
        0,
        0,
        0,
        0,
        2.2204460492503131e-16,
        1,
        0,
        0,
        -1,
        2.2204460492503131e-16,
        0,
        0,
        0,
        0,
        1
      ],
      "name": "GLTF_SceneRootNode"
    },
    {
      "children": [
        5
      ],
      "name": "Lobby3Bottom_0"
    },
    {
      "mesh": 0,
      "name": ""
    },
    {
      "children": [
        7
      ],
      "name": "Loddy3Front_1"
    },
    {
      "mesh": 1,
      "name": ""
    },
    {
      "children": [
        9
      ],
      "name": "Lobby3Light_2"
    },
    {
      "mesh": 2,
      "name": ""
    },
    {
      "children": [
        11
      ],
      "name": "WheelLeftFront_3"
    },
    {
      "mesh": 3,
      "name": ""
    },
    {
      "children": [
        13
      ],
      "name": "Mirror_4"
    },
    {
      "mesh": 4,
      "name": ""
    },
    {
      "children": [
        15
      ],
      "name": "Cargo_5"
    },
    {
      "mesh": 5,
      "name": ""
    },
    {
      "children": [
        17
      ],
      "name": "LobbyDoor2_6"
    },
    {
      "mesh": 6,
      "name": ""
    },
    {
      "children": [
        19
      ],
      "name": "Lobby3Door_7"
    },
    {
      "mesh": 7,
      "name": ""
    },
    {
      "children": [
        21
      ],
      "name": "WheelRoghtBack_8"
    },
    {
      "mesh": 8,
      "name": ""
    },
    {
      "children": [
        23
      ],
      "name": "WheelLeftBack_9"
    },
    {
      "mesh": 9,
      "name": ""
    },
    {
      "children": [
        25
      ],
      "name": "WheelRightFront_10"
    },
    {
      "mesh": 10,
      "name": ""
    }
  ],
  "samplers": [
    {
      "magFilter": 9729,
      "minFilter": 9987,
      "wrapS": 10497,
      "wrapT": 10497
    }
  ],
  "scene": 0,
  "scenes": [
    {
      "name": "OSG_Scene",
      "nodes": [
        0
      ]
    }
  ],
  "textures": [
    {
      "sampler": 0,
      "source": 0
    }
  ]
}

