{
  "accessors": [
    {
      "bufferView": 2,
      "componentType": 5126,
      "count": 65532,
      "max": [
        0.31858000159263611,
        0.40897899866104126,
        0.95541900396347046
      ],
      "min": [
        -0.31858000159263611,
        -0.25835698843002319,
        -0.95541900396347046
      ],
      "type": "VEC3"
    },
    {
      "bufferView": 2,
      "byteOffset": 786384,
      "componentType": 5126,
      "count": 65532,
      "max": [
        1,
        1,
        1
      ],
      "min": [
        -1,
        -1,
        -1
      ],
      "type": "VEC3"
    },
    {
      "bufferView": 3,
      "componentType": 5126,
      "count": 65532,
      "max": [
        1,
        1,
        1,
        1
      ],
      "min": [
        -1,
        -1,
        -1,
        -1
      ],
      "type": "VEC4"
    },
    {
      "bufferView": 1,
      "componentType": 5126,
      "count": 65532,
      "max": [
        0.99791902303695679,
        0.97490298748016357
      ],
      "min": [
        0,
        0
      ],
      "type": "VEC2"
    },
    {
      "bufferView": 0,
      "componentType": 5125,
      "count": 277227,
      "max": [
        65531
      ],
      "min": [
        0
      ],
      "type": "SCALAR"
    },
    {
      "bufferView": 2,
      "byteOffset": 1572768,
      "componentType": 5126,
      "count": 15044,
      "max": [
        0.19732999801635742,
        -0.049720898270606995,
        0.92653501033782959
      ],
      "min": [
        -0.31858000159263611,
        -0.25835698843002319,
        -0.95541900396347046
      ],
      "type": "VEC3"
    },
    {
      "bufferView": 2,
      "byteOffset": 1753296,
      "componentType": 5126,
      "count": 15044,
      "max": [
        0.99998950958251953,
        1,
        0.9999767541885376
      ],
      "min": [
        -0.99998944997787476,
        -1,
        -0.9999767541885376
      ],
      "type": "VEC3"
    },
    {
      "bufferView": 3,
      "byteOffset": 1048512,
      "componentType": 5126,
      "count": 15044,
      "max": [
        0.99975109100341797,
        1,
        1,
        1
      ],
      "min": [
        -1,
        -1,
        -1,
        -1
      ],
      "type": "VEC4"
    },
    {
      "bufferView": 1,
      "byteOffset": 524256,
      "componentType": 5126,
      "count": 15044,
      "max": [
        0.90117502212524414,
        0.7779729962348938
      ],
      "min": [
        0.034487999975681305,
        0.010146000422537327
      ],
      "type": "VEC2"
    },
    {
      "bufferView": 0,
      "byteOffset": 1108908,
      "componentType": 5125,
      "count": 65529,
      "max": [
        15043
      ],
      "min": [
        0
      ],
      "type": "SCALAR"
    },
    {
      "bufferView": 2,
      "byteOffset": 1933824,
      "componentType": 5126,
      "count": 27200,
      "max": [
        0.3048279881477356,
        -0.046744700521230698,
        0.95744597911834717
      ],
      "min": [
        -0.3048279881477356,
        -0.21586300432682037,
        -0.95744597911834717
      ],
      "type": "VEC3"
    },
    {
      "bufferView": 2,
      "byteOffset": 2260224,
      "componentType": 5126,
      "count": 27200,
      "max": [
        0.99993288516998291,
        0.99349910020828247,
        0.99929946660995483
      ],
      "min": [
        -0.99993276596069336,
        -0.9924435019493103,
        -0.99929648637771606
      ],
      "type": "VEC3"
    },
    {
      "bufferView": 3,
      "byteOffset": 1289216,
      "componentType": 5126,
      "count": 27200,
      "max": [
        0.99978089332580566,
        0.98841863870620728,
        0.99987989664077759,
        1
      ],
      "min": [
        -0.99978083372116089,
        -0.98954671621322632,
        -0.99987989664077759,
        -1
      ],
      "type": "VEC4"
    },
    {
      "bufferView": 1,
      "byteOffset": 644608,
      "componentType": 5126,
      "count": 27200,
      "max": [
        0.98312497138977051,
        21.534999847412109
      ],
      "min": [
        0.0120430001989007,
        -20.534999847412109
      ],
      "type": "VEC2"
    },
    {
      "bufferView": 0,
      "byteOffset": 1371024,
      "componentType": 5125,
      "count": 129024,
      "max": [
        27199
      ],
      "min": [
        0
      ],
      "type": "SCALAR"
    },
    {
      "bufferView": 2,
      "byteOffset": 2586624,
      "componentType": 5126,
      "count": 3120,
      "max": [
        0.28991401195526123,
        -0.17955200374126434,
        0.62203598022460938
      ],
      "min": [
        -0.28991401195526123,
        -0.20801599323749542,
        -0.62203598022460938
      ],
      "type": "VEC3"
    },
    {
      "bufferView": 2,
      "byteOffset": 2624064,
      "componentType": 5126,
      "count": 3120,
      "max": [
        0.9999995231628418,
        0.99913913011550903,
        0.99999958276748657
      ],
      "min": [
        -0.99999946355819702,
        -8.8973341917153448e-05,
        -0.99999958276748657
      ],
      "type": "VEC3"
    },
    {
      "bufferView": 3,
      "byteOffset": 1724416,
      "componentType": 5126,
      "count": 3120,
      "max": [
        0.99979764223098755,
        0.73090052604675293,
        0.99999397993087769,
        1
      ],
      "min": [
        -0.99979764223098755,
        -0.550670325756073,
        -0.99999397993087769,
        -1
      ],
      "type": "VEC4"
    },
    {
      "bufferView": 1,
      "byteOffset": 862208,
      "componentType": 5126,
      "count": 3120,
      "max": [
        1,
        1
      ],
      "min": [
        0,
        0
      ],
      "type": "VEC2"
    },
    {
      "bufferView": 0,
      "byteOffset": 1887120,
      "componentType": 5125,
      "count": 4680,
      "max": [
        3119
      ],
      "min": [
        0
      ],
      "type": "SCALAR"
    },
    {
      "bufferView": 2,
      "byteOffset": 2661504,
      "componentType": 5126,
      "count": 610,
      "max": [
        0.28665199875831604,
        -0.077449798583984375,
        0.96194100379943848
      ],
      "min": [
        -0.28665199875831604,
        -0.23542700707912445,
        -0.96194100379943848
      ],
      "type": "VEC3"
    },
    {
      "bufferView": 2,
      "byteOffset": 2668824,
      "componentType": 5126,
      "count": 610,
      "max": [
        0.26783090829849243,
        1,
        1
      ],
      "min": [
        -0.26782694458961487,
        -1,
        -1
      ],
      "type": "VEC3"
    },
    {
      "bufferView": 3,
      "byteOffset": 1774336,
      "componentType": 5126,
      "count": 610,
      "max": [
        1,
        0.35080304741859436,
        0.96987342834472656,
        1
      ],
      "min": [
        -1,
        -0.33948153257369995,
        -0.97016268968582153,
        -1
      ],
      "type": "VEC4"
    },
    {
      "bufferView": 1,
      "byteOffset": 887168,
      "componentType": 5126,
      "count": 610,
      "max": [
        0.99733400344848633,
        1
      ],
      "min": [
        0,
        0
      ],
      "type": "VEC2"
    },
    {
      "bufferView": 0,
      "byteOffset": 1905840,
      "componentType": 5125,
      "count": 2856,
      "max": [
        609
      ],
      "min": [
        0
      ],
      "type": "SCALAR"
    },
    {
      "bufferView": 2,
      "byteOffset": 2676144,
      "componentType": 5126,
      "count": 5047,
      "max": [
        0.31967699527740479,
        0.10164199769496918,
        1
      ],
      "min": [
        -0.31967699527740479,
        -0.40897899866104126,
        -1
      ],
      "type": "VEC3"
    },
    {
      "bufferView": 2,
      "byteOffset": 2736708,
      "componentType": 5126,
      "count": 5047,
      "max": [
        1,
        1,
        1
      ],
      "min": [
        -1,
        -1,
        -1
      ],
      "type": "VEC3"
    },
    {
      "bufferView": 3,
      "byteOffset": 1784096,
      "componentType": 5126,
      "count": 5047,
      "max": [
        1,
        1,
        1,
        1
      ],
      "min": [
        -1,
        -1,
        -1,
        -1
      ],
      "type": "VEC4"
    },
    {
      "bufferView": 1,
      "byteOffset": 892048,
      "componentType": 5126,
      "count": 5047,
      "max": [
        0.99580597877502441,
        0.99527502059936523
      ],
      "min": [
        0,
        0
      ],
      "type": "VEC2"
    },
    {
      "bufferView": 0,
      "byteOffset": 1917264,
      "componentType": 5125,
      "count": 24096,
      "max": [
        5046
      ],
      "min": [
        0
      ],
      "type": "SCALAR"
    }
  ],
  "asset": {
    "extras": {
      "author": "chrisw225 (https://sketchfab.com/chrisw225)",
      "license": "CC-BY-4.0 (http://creativecommons.org/licenses/by/4.0/)",
      "source": "https://sketchfab.com/3d-models/star-ferry-7b0f363137e94d688db63da2b4e0b376",
      "title": "Star Ferry"
    },
    "generator": "Sketchfab-10.3.0",
    "version": "2.0"
  },
  "bufferViews": [
    {
      "buffer": 0,
      "byteLength": 2013648,
      "byteOffset": 0,
      "name": "floatBufferViews",
      "target": 34963
    },
    {
      "buffer": 0,
      "byteLength": 932424,
      "byteOffset": 2013648,
      "byteStride": 8,
      "name": "floatBufferViews",
      "target": 34962
    },
    {
      "buffer": 0,
      "byteLength": 2797272,
      "byteOffset": 2946072,
      "byteStride": 12,
      "name": "floatBufferViews",
      "target": 34962
    },
    {
      "buffer": 0,
      "byteLength": 1864848,
      "byteOffset": 5743344,
      "byteStride": 16,
      "name": "floatBufferViews",
      "target": 34962
    }
  ],
  "buffers": [
    {
      "byteLength": 7608192,
      "uri": "scene.bin"
    }
  ],
  "images": [
    {
      "uri": "textures/starFerry_propsSG_baseColor.jpeg"
    },
    {
      "uri": "textures/starFerry_propsSG_metallicRoughness.png"
    },
    {
      "uri": "textures/starFerry_propsSG_normal.png"
    },
    {
      "uri": "textures/starFerry_ropesSG_baseColor.jpeg"
    },
    {
      "uri": "textures/starFerry_ropesSG_metallicRoughness.png"
    },
    {
      "uri": "textures/starFerry_ropesSG_normal.png"
    },
    {
      "uri": "textures/starFerry_chainsSG_baseColor.png"
    },
    {
      "uri": "textures/starFerry_chainsSG_metallicRoughness.png"
    },
    {
      "uri": "textures/starFerry_chainsSG_normal.png"
    },
    {
      "uri": "textures/starFerry_floorSG_baseColor.jpeg"
    },
    {
      "uri": "textures/starFerry_floorSG_metallicRoughness.png"
    },
    {
      "uri": "textures/starFerry_floorSG_normal.png"
    },
    {
      "uri": "textures/starFerry_mainSG_baseColor.jpeg"
    },
    {
      "uri": "textures/starFerry_mainSG_metallicRoughness.png"
    },
    {
      "uri": "textures/starFerry_mainSG_normal.png"
    }
  ],
  "materials": [
    {
      "doubleSided": true,
      "emissiveFactor": [
        0,
        0,
        0
      ],
      "name": "starFerry_propsSG",
      "normalTexture": {
        "index": 2,
        "scale": 1,
        "texCoord": 0
      },
      "occlusionTexture": {
        "index": 1,
        "strength": 1,
        "texCoord": 0
      },
      "pbrMetallicRoughness": {
        "baseColorFactor": [
          1,
          1,
          1,
          1
        ],
        "baseColorTexture": {
          "index": 0,
          "texCoord": 0
        },
        "metallicFactor": 1,
        "metallicRoughnessTexture": {
          "index": 1,
          "texCoord": 0
        },
        "roughnessFactor": 1
      }
    },
    {
      "doubleSided": true,
      "emissiveFactor": [
        0,
        0,
        0
      ],
      "name": "starFerry_ropesSG",
      "normalTexture": {
        "index": 5,
        "scale": 1,
        "texCoord": 0
      },
      "occlusionTexture": {
        "index": 4,
        "strength": 1,
        "texCoord": 0
      },
      "pbrMetallicRoughness": {
        "baseColorFactor": [
          1,
          1,
          1,
          1
        ],
        "baseColorTexture": {
          "index": 3,
          "texCoord": 0
        },
        "metallicFactor": 1,
        "metallicRoughnessTexture": {
          "index": 4,
          "texCoord": 0
        },
        "roughnessFactor": 1
      }
    },
    {
      "alphaMode": "BLEND",
      "doubleSided": true,
      "emissiveFactor": [
        0,
        0,
        0
      ],
      "name": "starFerry_chainsSG",
      "normalTexture": {
        "index": 8,
        "scale": 1,
        "texCoord": 0
      },
      "pbrMetallicRoughness": {
        "baseColorFactor": [
          1,
          1,
          1,
          1
        ],
        "baseColorTexture": {
          "index": 6,
          "texCoord": 0
        },
        "metallicFactor": 1,
        "metallicRoughnessTexture": {
          "index": 7,
          "texCoord": 0
        },
        "roughnessFactor": 1
      }
    },
    {
      "doubleSided": true,
      "emissiveFactor": [
        0,
        0,
        0
      ],
      "name": "starFerry_floorSG",
      "normalTexture": {
        "index": 11,
        "scale": 1,
        "texCoord": 0
      },
      "occlusionTexture": {
        "index": 10,
        "strength": 1,
        "texCoord": 0
      },
      "pbrMetallicRoughness": {
        "baseColorFactor": [
          1,
          1,
          1,
          1
        ],
        "baseColorTexture": {
          "index": 9,
          "texCoord": 0
        },
        "metallicFactor": 1,
        "metallicRoughnessTexture": {
          "index": 10,
          "texCoord": 0
        },
        "roughnessFactor": 1
      }
    },
    {
      "doubleSided": true,
      "emissiveFactor": [
        0,
        0,
        0
      ],
      "name": "starFerry_mainSG",
      "normalTexture": {
        "index": 14,
        "scale": 1,
        "texCoord": 0
      },
      "occlusionTexture": {
        "index": 13,
        "strength": 1,
        "texCoord": 0
      },
      "pbrMetallicRoughness": {
        "baseColorFactor": [
          1,
          1,
          1,
          1
        ],
        "baseColorTexture": {
          "index": 12,
          "texCoord": 0
        },
        "metallicFactor": 1,
        "metallicRoughnessTexture": {
          "index": 13,
          "texCoord": 0
        },
        "roughnessFactor": 1
      }
    }
  ],
  "meshes": [
    {
      "name": "defaultMaterial",
      "primitives": [
        {
          "attributes": {
            "NORMAL": 1,
            "POSITION": 0,
            "TANGENT": 2,
            "TEXCOORD_0": 3
          },
          "indices": 4,
          "material": 0,
          "mode": 4
        }
      ]
    },
    {
      "name": "defaultMaterial",
      "primitives": [
        {
          "attributes": {
            "NORMAL": 6,
            "POSITION": 5,
            "TANGENT": 7,
            "TEXCOORD_0": 8
          },
          "indices": 9,
          "material": 0,
          "mode": 4
        }
      ]
    },
    {
      "name": "defaultMaterial",
      "primitives": [
        {
          "attributes": {
            "NORMAL": 11,
            "POSITION": 10,
            "TANGENT": 12,
            "TEXCOORD_0": 13
          },
          "indices": 14,
          "material": 1,
          "mode": 4
        }
      ]
    },
    {
      "name": "defaultMaterial",
      "primitives": [
        {
          "attributes": {
            "NORMAL": 16,
            "POSITION": 15,
            "TANGENT": 17,
            "TEXCOORD_0": 18
          },
          "indices": 19,
          "material": 2,
          "mode": 4
        }
      ]
    },
    {
      "name": "defaultMaterial",
      "primitives": [
        {
          "attributes": {
            "NORMAL": 21,
            "POSITION": 20,
            "TANGENT": 22,
            "TEXCOORD_0": 23
          },
          "indices": 24,
          "material": 3,
          "mode": 4
        }
      ]
    },
    {
      "name": "defaultMaterial",
      "primitives": [
        {
          "attributes": {
            "NORMAL": 26,
            "POSITION": 25,
            "TANGENT": 27,
            "TEXCOORD_0": 28
          },
          "indices": 29,
          "material": 4,
          "mode": 4
        }
      ]
    }
  ],
  "nodes": [
    {
      "children": [
        1
      ],
      "name": "RootNode (gltf orientation matrix)",
      "rotation": [
        -0.70710678118654746,
        -0,
        -0,
        0.70710678118654757
      ]
    },
    {
      "children": [
        2
      ],
      "matrix": [
        16.119022369384766,
        0,
        0,
        0,
        0,
        16.119022369384766,
        0,
        0,
        0,
        0,
        16.119022369384766,
        0,
        0,
        0,
        0,
        1
      ],
      "name": "RootNode (model correction matrix)"
    },
    {
      "children": [
        3
      ],
      "matrix": [
        1,
        0,
        0,
        0,
        0,
        -4.3711390063094768e-08,
        0.999999999999999,
        0,
        0,
        -0.999999999999999,
        -4.3711390063094768e-08,
        0,
        0,
        0,
        0,
        1
      ],
      "name": "Collada visual scene group"
    },
    {
      "children": [
        4,
        5,
        6,
        7,
        8,
        9
      ],
      "name": "defaultobject"
    },
    {
      "mesh": 0,
      "name": "defaultMaterial"
    },
    {
      "mesh": 1,
      "name": "defaultMaterial"
    },
    {
      "mesh": 2,
      "name": "defaultMaterial"
    },
    {
      "mesh": 3,
      "name": "defaultMaterial"
    },
    {
      "mesh": 4,
      "name": "defaultMaterial"
    },
    {
      "mesh": 5,
      "name": "defaultMaterial"
    }
  ],
  "samplers": [
    {
      "magFilter": 9729,
      "minFilter": 9987,
      "wrapS": 10497,
      "wrapT": 10497
    }
  ],
  "scene": 0,
  "scenes": [
    {
      "name": "OSG_Scene",
      "nodes": [
        0
      ]
    }
  ],
  "textures": [
    {
      "sampler": 0,
      "source": 0
    },
    {
      "sampler": 0,
      "source": 1
    },
    {
      "sampler": 0,
      "source": 2
    },
    {
      "sampler": 0,
      "source": 3
    },
    {
      "sampler": 0,
      "source": 4
    },
    {
      "sampler": 0,
      "source": 5
    },
    {
      "sampler": 0,
      "source": 6
    },
    {
      "sampler": 0,
      "source": 7
    },
    {
      "sampler": 0,
      "source": 8
    },
    {
      "sampler": 0,
      "source": 9
    },
    {
      "sampler": 0,
      "source": 10
    },
    {
      "sampler": 0,
      "source": 11
    },
    {
      "sampler": 0,
      "source": 12
    },
    {
      "sampler": 0,
      "source": 13
    },
    {
      "sampler": 0,
      "source": 14
    }
  ]
}

